<?xml version="1.0" encoding="UTF-8"?><svg id="Layer_1" xmlns="http://www.w3.org/2000/svg" viewBox="0 0 1920 312"><defs><style>.cls-1{fill:#0a0a09;}</style></defs><path class="cls-1" d="m359.02,159.76c20.81-16.38,32.32-39.4,32.32-65.52s-11.95-51.35-31.87-66.4c-17.71-14.17-38.96-19.48-74.81-19.48H0v295.27h151.84v-93.41l72.6,93.41h176.19l-101.82-122.63c28.77-3.1,43.38-8.41,60.2-21.25Zm-131.92-16.82c-7.08,3.99-13.28,5.31-28.78,5.31h-46.48v-61.09h55.34c24.35,0,33.64,7.97,33.64,27.89,0,12.4-4.87,22.58-13.72,27.89ZM597.4,8.36h151.84v295.27h-151.84V8.36Zm766.46,0l-108.46,152.28,101.82,142.99h-166.01l-39.84-69.06-44.27,69.06h-166.01l103.15-142.99L936.66,8.36h177.52l37.18,79.24,39.84-79.24h172.65ZM1715.03-.05c-61.53,0-111.56,11.51-146.53,34.09-36.74,23.46-56.22,65.52-56.22,122.18,0,52.68,18.15,95.18,50.47,118.64,34.53,24.79,85.44,37.19,153.17,37.19s119.08-12.4,153.61-37.19c31.87-23.02,50.47-66.4,50.47-116.87C1920,50.42,1854.48-.05,1715.03-.05Zm.88,226.66c-33.64,0-50.47-23.02-50.47-69.5,0-37.19,17.71-57.11,50.47-57.11s50.91,19.48,50.91,57.55c0,45.6-17.26,69.06-50.91,69.06Z"/></svg>